<?xml version="1.0" encoding="iso-8859-1"?>
<!-- Generator: Adobe Illustrator 19.0.0, SVG Export Plug-In . SVG Version: 6.00 Build 0)  -->
<svg xmlns="http://www.w3.org/2000/svg" xmlns:xlink="http://www.w3.org/1999/xlink" version="1.1" id="Layer_1" x="0px" y="0px" viewBox="0 0 512 512" style="enable-background:new 0 0 512 512;" xml:space="preserve" width="512px" height="512px">
<g>
	<g>
		<path d="M309.329,490.664h-3.188L341.328,384L256,298.664L170.672,384l35.547,106.664h-3.547c-5.891,0-10.672,4.781-10.672,10.672    S196.781,512,202.672,512h0.016h106.625h0.016c5.891,0,10.672-4.773,10.672-10.664S315.22,490.664,309.329,490.664z     M266.671,490.664V416c0-5.891-4.781-10.664-10.672-10.664s-10.672,4.773-10.672,10.664v74.664h-16.609l-33.641-100.906    L256,328.836l60.953,60.961l-33.266,100.867H266.671z" fill="#646ecc"/>
	</g>
</g>
<g>
	<g>
		<path d="M488.5,64H512V0h-64v64h18.953c-2.625,17.531-7.422,34.602-14.375,51.031c-10.75,25.398-26.125,48.219-45.734,67.82    c-19.594,19.594-42.406,34.984-67.812,45.727c-16.422,6.945-33.5,11.758-51.031,14.383v-8.297h-64v8.297    c-17.531-2.625-34.609-7.438-51.031-14.383c-25.406-10.742-48.219-26.133-67.812-45.727    c-19.609-19.602-34.984-42.422-45.734-67.82c-6.953-16.43-11.75-33.5-14.375-51.031H64V0H0v64h23.5    c12.391,90.922,76.875,165.266,162.391,192H62.172C57.781,243.57,45.938,234.664,32,234.664c-17.672,0-32,14.328-32,32    s14.328,32,32,32c13.938,0,25.781-8.906,30.172-21.328H224v21.328h32h32v-21.328h161.828    c4.391,12.422,16.234,21.328,30.172,21.328c17.672,0,32-14.328,32-32s-14.328-32-32-32c-13.938,0-25.781,8.906-30.172,21.336    H326.109C411.625,229.266,476.094,154.922,488.5,64z M469.328,21.336h21.344v21.328h-21.344V21.336z M42.672,42.664H21.328V21.336    h21.344V42.664z M32,277.336c-5.875,0-10.672-4.789-10.672-10.672S26.125,256,32,256s10.672,4.781,10.672,10.664    S37.875,277.336,32,277.336z M266.672,277.336h-21.344V256h21.344V277.336z M480,256c5.875,0,10.672,4.781,10.672,10.664    s-4.797,10.672-10.672,10.672s-10.672-4.789-10.672-10.672S474.125,256,480,256z" fill="#646ecc"/>
	</g>
</g>
<g>
</g>
<g>
</g>
<g>
</g>
<g>
</g>
<g>
</g>
<g>
</g>
<g>
</g>
<g>
</g>
<g>
</g>
<g>
</g>
<g>
</g>
<g>
</g>
<g>
</g>
<g>
</g>
<g>
</g>
</svg>
