<?xml version="1.0" standalone="no"?>
<!DOCTYPE svg PUBLIC "-//W3C//DTD SVG 20010904//EN"
 "http://www.w3.org/TR/2001/REC-SVG-20010904/DTD/svg10.dtd">
<svg version="1.0" xmlns="http://www.w3.org/2000/svg"
 width="501.000000pt" height="501.000000pt" viewBox="0 0 501.000000 501.000000"
 preserveAspectRatio="xMidYMid meet">
<metadata>
Created by potrace 1.14, written by Peter Selinger 2001-2017
</metadata>
<g transform="translate(0.000000,501.000000) scale(0.100000,-0.100000)"
fill="#000000" stroke="none">
<path d="M2250 4998 c-107 -10 -324 -51 -415 -78 -38 -12 -79 -23 -90 -25 -11
-3 -36 -11 -55 -19 -19 -8 -62 -24 -95 -36 -184 -69 -465 -228 -625 -354 -156
-123 -322 -288 -443 -441 -69 -87 -205 -300 -252 -395 -93 -187 -182 -431
-209 -570 -2 -14 -7 -32 -10 -40 -3 -8 -8 -32 -11 -54 -3 -21 -7 -41 -9 -45
-2 -3 -7 -35 -11 -71 -4 -36 -11 -94 -15 -130 -8 -66 -5 -468 3 -505 3 -11 8
-45 12 -75 38 -309 172 -682 344 -960 175 -283 415 -540 674 -723 169 -120
357 -224 517 -286 47 -18 94 -37 105 -42 76 -32 367 -104 464 -114 30 -3 57
-8 60 -10 11 -6 203 -18 306 -18 732 -1 1429 318 1906 873 246 286 421 621
525 1005 74 273 94 602 58 940 -7 59 -51 287 -64 330 -71 227 -97 298 -165
440 -88 182 -223 391 -340 525 -60 69 -130 145 -150 163 -11 10 -42 40 -70 65
-27 26 -75 67 -105 92 -30 25 -57 47 -60 51 -3 3 -27 20 -55 39 -27 19 -52 36
-55 39 -3 3 -14 12 -25 18 -11 7 -56 35 -100 62 -263 162 -622 293 -909 331
-45 6 -92 13 -106 16 -45 9 -443 11 -530 2z"/>
</g>
</svg>
