<svg xmlns="http://www.w3.org/2000/svg" height="512" viewBox="0 0 64 64" width="512"><path d="M32 8C18.766 8 8 18.767 8 32s10.766 24 24 24 24-10.767 24-24S45.234 8 32 8zm20 24c0 .336-.034.664-.05.997-4.178-.15-8.717.395-13.318 1.593-.394-1.82-.886-3.646-1.48-5.452-.33-1.007-.703-2.003-1.095-3 4.388-2.048 8.15-4.602 10.89-7.393C50.08 22.287 52 26.918 52 32zm-7.994-15.957c-2.376 2.4-5.673 4.626-9.558 6.446-1.87-3.836-4.13-7.234-6.654-10.035C29.152 12.162 30.557 12 32 12c4.508 0 8.658 1.517 12.006 4.043zm-20.39-2.177c2.7 2.672 5.148 6.133 7.133 10.157a52.12 52.12 0 0 1-3.042 1.03c-5.226 1.558-10.49 2.212-15.034 1.887 1.523-5.8 5.588-10.588 10.943-13.074zM12 32c0-.373.036-.738.056-1.106a36.11 36.11 0 0 0 2.924.13c4.37 0 9.152-.73 13.875-2.14a54.89 54.89 0 0 0 3.51-1.198 48.05 48.05 0 0 1 .985 2.698 49.82 49.82 0 0 1 1.441 5.354c-7.07 2.407-13.2 6.164-16.952 10.368C14.233 42.488 12 37.5 12 32zm8.932 16.644c3.18-3.52 8.4-6.715 14.516-8.893.518 4.377.322 8.534-.556 12.016-.947.138-1.907.233-2.892.233-4.09 0-7.896-1.24-11.068-3.356zM39.22 50.63c.636-3.668.673-7.8.102-12.08 4.13-1.1 8.287-1.64 12.025-1.564a20.06 20.06 0 0 1-12.127 13.645z"/></svg>