<svg xmlns="http://www.w3.org/2000/svg" viewBox="0 0 116 116"><g fill="#6C87EF" fill-rule="nonzero"><path d="M31.047 71.7c-7.602-7.561-7.602-19.834 0-27.394L69.9 5.68c.353-.351.72-.689 1.1-1.013-7.738-6.588-19.25-6.156-26.459 1.013L5.701 44.306c-7.602 7.56-7.602 19.833 0 27.393l38.84 38.626c7.195 7.156 18.721 7.601 26.445 1.013-.38-.324-.746-.662-1.1-1.013L31.048 71.7z"/><path d="M56.636 71.794L83.5 99l26.864-27.22c7.515-7.61 7.515-19.963 0-27.574L83.5 17 56.636 44.22c-7.515 7.61-7.515 19.95 0 27.574z"/></g></svg>