<?xml version="1.0" encoding="iso-8859-1"?>
<!-- Generator: Adobe Illustrator 19.0.0, SVG Export Plug-In . SVG Version: 6.00 Build 0)  -->
<svg xmlns="http://www.w3.org/2000/svg" xmlns:xlink="http://www.w3.org/1999/xlink" version="1.1" id="Layer_1" x="0px" y="0px" viewBox="0 0 496 496" style="enable-background:new 0 0 496 496;" xml:space="preserve" width="512px" height="512px">
<g>
	<g>
		<g>
			<path d="M0,0v408h200v40c0,26.472,21.528,48,48,48s48-21.528,48-48v-40h200V0H0z M280,448c0,17.648-14.352,32-32,32     s-32-14.352-32-32v-24h64V448z M280,408h-64V288h64V408z M281.968,272h-67.936l-13.144-46.008L240,181.288v28.184     c-9.288,3.312-16,12.112-16,22.528c0,13.232,10.768,24,24,24s24-10.768,24-24c0-10.416-6.712-19.216-16-22.528v-28.184     l39.112,44.704L281.968,272z M248,224c4.416,0,8,3.584,8,8s-3.584,8-8,8c-4.416,0-8-3.584-8-8S243.584,224,248,224z      M259.12,160.568c71.552,5.512,128.488,63.472,132.472,135.44H376v48h48v-48h-16.408c-2.984-59.96-39.016-111.216-90.312-136H376     v16h48v-48h-48v16H120v-16H72v48h48v-16h58.72c-51.296,24.784-87.328,76.04-90.312,136H72v48h48v-48h-15.592     c3.984-71.968,60.912-129.928,132.472-135.44l-53.768,61.44L200,281.112V360H48V112h400v248H296v-78.888l16.888-59.104     L259.12,160.568z M392,328v-16h16v16H392z M392,160v-16h16v16H392z M104,144v16H88v-16H104z M104,312v16H88v-16H104z M480,392     H296v-16h168V96H32v280h168v16H16V80h464V392z M480,64H16V16h464V64z" fill="#646ecc"/>
			<rect x="32" y="32" width="16" height="16" fill="#646ecc"/>
			<rect x="64" y="32" width="16" height="16" fill="#646ecc"/>
			<rect x="96" y="32" width="16" height="16" fill="#646ecc"/>
			<rect x="312" y="424" width="16" height="16" fill="#646ecc"/>
			<rect x="344" y="424" width="16" height="16" fill="#646ecc"/>
			<rect x="376" y="424" width="16" height="16" fill="#646ecc"/>
			<rect x="104" y="424" width="16" height="16" fill="#646ecc"/>
			<rect x="136" y="424" width="16" height="16" fill="#646ecc"/>
			<rect x="168" y="424" width="16" height="16" fill="#646ecc"/>
		</g>
	</g>
</g>
<g>
</g>
<g>
</g>
<g>
</g>
<g>
</g>
<g>
</g>
<g>
</g>
<g>
</g>
<g>
</g>
<g>
</g>
<g>
</g>
<g>
</g>
<g>
</g>
<g>
</g>
<g>
</g>
<g>
</g>
</svg>
